<?xml version="1.0" encoding="UTF-8" standalone="no"?>
<!DOCTYPE svg PUBLIC "-//W3C//DTD SVG 1.1//EN"
 "http://www.w3.org/Graphics/SVG/1.1/DTD/svg11.dtd">
<!-- Generated by graphviz version 13.0.1 (20250615.1724)
 -->
<!-- Pages: 1 -->
<svg width="748pt" height="864pt"
 viewBox="0.00 0.00 748.00 864.00" xmlns="http://www.w3.org/2000/svg" xmlns:xlink="http://www.w3.org/1999/xlink">
<g id="graph0" class="graph" transform="scale(0.887342 0.887342) rotate(0) translate(4 969.69)">
<polygon fill="#fafafa" stroke="none" points="-4,4 -4,-969.69 838.96,-969.69 838.96,4 -4,4"/>
<text xml:space="preserve" text-anchor="middle" x="417.48" y="-944.59" font-family="Arial" font-size="18.00" fill="#333333">Sistema de Análisis Léxico LYNX</text>
<!-- entrada -->
<g id="node1" class="node">
<title>entrada</title>
<path fill="#aaddff" stroke="black" stroke-width="2" d="M494.76,-936.69C494.76,-936.69 395.16,-936.69 395.16,-936.69 389.16,-936.69 383.16,-930.69 383.16,-924.69 383.16,-924.69 383.16,-891.09 383.16,-891.09 383.16,-885.09 389.16,-879.09 395.16,-879.09 395.16,-879.09 494.76,-879.09 494.76,-879.09 500.76,-879.09 506.76,-885.09 506.76,-891.09 506.76,-891.09 506.76,-924.69 506.76,-924.69 506.76,-930.69 500.76,-936.69 494.76,-936.69"/>
<text xml:space="preserve" text-anchor="middle" x="444.96" y="-902.47" font-family="Arial" font-size="14.00" fill="#333333">Texto de Entrada</text>
</g>
<!-- analizador -->
<g id="node2" class="node">
<title>analizador</title>
<path fill="#ffd700" stroke="black" stroke-width="2" d="M503.38,-793.09C503.38,-793.09 386.53,-793.09 386.53,-793.09 380.53,-793.09 374.53,-787.09 374.53,-781.09 374.53,-781.09 374.53,-747.49 374.53,-747.49 374.53,-741.49 380.53,-735.49 386.53,-735.49 386.53,-735.49 503.38,-735.49 503.38,-735.49 509.38,-735.49 515.38,-741.49 515.38,-747.49 515.38,-747.49 515.38,-781.09 515.38,-781.09 515.38,-787.09 509.38,-793.09 503.38,-793.09"/>
<text xml:space="preserve" text-anchor="middle" x="444.96" y="-758.87" font-family="Arial" font-size="14.00" fill="#333333">Analizador Principal</text>
</g>
<!-- entrada&#45;&gt;analizador -->
<g id="edge3" class="edge">
<title>entrada&#45;&gt;analizador</title>
<path fill="none" stroke="#333333" stroke-width="1.8" d="M444.96,-878.14C444.96,-878.14 444.96,-804.74 444.96,-804.74"/>
<polygon fill="#333333" stroke="#333333" stroke-width="1.8" points="447.76,-804.73 444.96,-796.74 442.16,-804.74 447.76,-804.73"/>
</g>
<!-- afd_multi -->
<g id="node3" class="node">
<title>afd_multi</title>
<ellipse fill="#90ee90" stroke="black" stroke-width="2" cx="70.96" cy="-611.95" rx="70.96" ry="37.55"/>
<text xml:space="preserve" text-anchor="middle" x="70.96" y="-614.4" font-family="Arial" font-size="14.00" fill="#333333">AFD</text>
<text xml:space="preserve" text-anchor="middle" x="70.96" y="-598.65" font-family="Arial" font-size="14.00" fill="#333333">Multi&#45;palabra</text>
</g>
<!-- analizador&#45;&gt;afd_multi -->
<g id="edge4" class="edge">
<title>analizador&#45;&gt;afd_multi</title>
<path fill="none" stroke="#555555" stroke-width="1.3" stroke-dasharray="5,2" d="M373.73,-764C265.22,-764 70.96,-764 70.96,-764 70.96,-764 70.96,-660.28 70.96,-660.28"/>
<polygon fill="#555555" stroke="#555555" stroke-width="1.3" points="73.76,-660.28 70.96,-652.28 68.16,-660.28 73.76,-660.28"/>
</g>
<!-- afd_op -->
<g id="node4" class="node">
<title>afd_op</title>
<ellipse fill="#ffb6c1" stroke="black" stroke-width="2" cx="265.96" cy="-611.95" rx="66.19" ry="37.55"/>
<text xml:space="preserve" text-anchor="middle" x="265.96" y="-614.4" font-family="Arial" font-size="14.00" fill="#333333">AFD</text>
<text xml:space="preserve" text-anchor="middle" x="265.96" y="-598.65" font-family="Arial" font-size="14.00" fill="#333333">Operadores</text>
</g>
<!-- analizador&#45;&gt;afd_op -->
<g id="edge6" class="edge">
<title>analizador&#45;&gt;afd_op</title>
<path fill="none" stroke="#555555" stroke-width="1.3" stroke-dasharray="5,2" d="M382.49,-734.57C382.49,-690.25 382.49,-612 382.49,-612 382.49,-612 343.04,-612 343.04,-612"/>
<polygon fill="#555555" stroke="#555555" stroke-width="1.3" points="343.04,-609.2 335.04,-612 343.04,-614.8 343.04,-609.2"/>
</g>
<!-- afd_num -->
<g id="node5" class="node">
<title>afd_num</title>
<ellipse fill="#ffd580" stroke="black" stroke-width="2" cx="444.96" cy="-611.95" rx="54.52" ry="37.55"/>
<text xml:space="preserve" text-anchor="middle" x="444.96" y="-614.4" font-family="Arial" font-size="14.00" fill="#333333">AFD</text>
<text xml:space="preserve" text-anchor="middle" x="444.96" y="-598.65" font-family="Arial" font-size="14.00" fill="#333333">Números</text>
</g>
<!-- analizador&#45;&gt;afd_num -->
<g id="edge8" class="edge">
<title>analizador&#45;&gt;afd_num</title>
<path fill="none" stroke="#555555" stroke-width="1.3" stroke-dasharray="5,2" d="M444.96,-734.56C444.96,-734.56 444.96,-660.25 444.96,-660.25"/>
<polygon fill="#555555" stroke="#555555" stroke-width="1.3" points="447.76,-660.25 444.96,-652.25 442.16,-660.25 447.76,-660.25"/>
</g>
<!-- afd_uni -->
<g id="node6" class="node">
<title>afd_uni</title>
<ellipse fill="#d8bfd8" stroke="black" stroke-width="2" cx="612.96" cy="-611.95" rx="55.58" ry="37.55"/>
<text xml:space="preserve" text-anchor="middle" x="612.96" y="-614.4" font-family="Arial" font-size="14.00" fill="#333333">AFD</text>
<text xml:space="preserve" text-anchor="middle" x="612.96" y="-598.65" font-family="Arial" font-size="14.00" fill="#333333">Unidades</text>
</g>
<!-- analizador&#45;&gt;afd_uni -->
<g id="edge10" class="edge">
<title>analizador&#45;&gt;afd_uni</title>
<path fill="none" stroke="#555555" stroke-width="1.3" stroke-dasharray="5,2" d="M507.43,-734.57C507.43,-690.25 507.43,-612 507.43,-612 507.43,-612 546.52,-612 546.52,-612"/>
<polygon fill="#555555" stroke="#555555" stroke-width="1.3" points="546.52,-614.8 554.52,-612 546.52,-609.2 546.52,-614.8"/>
</g>
<!-- afd_pal -->
<g id="node7" class="node">
<title>afd_pal</title>
<ellipse fill="#add8e6" stroke="black" stroke-width="2" cx="780.96" cy="-611.95" rx="54" ry="37.55"/>
<text xml:space="preserve" text-anchor="middle" x="780.96" y="-614.4" font-family="Arial" font-size="14.00" fill="#333333">AFD</text>
<text xml:space="preserve" text-anchor="middle" x="780.96" y="-598.65" font-family="Arial" font-size="14.00" fill="#333333">Palabras</text>
</g>
<!-- analizador&#45;&gt;afd_pal -->
<g id="edge12" class="edge">
<title>analizador&#45;&gt;afd_pal</title>
<path fill="none" stroke="#555555" stroke-width="1.3" stroke-dasharray="5,2" d="M516.22,-764C614.84,-764 780.96,-764 780.96,-764 780.96,-764 780.96,-660.28 780.96,-660.28"/>
<polygon fill="#555555" stroke="#555555" stroke-width="1.3" points="783.76,-660.28 780.96,-652.28 778.16,-660.28 783.76,-660.28"/>
</g>
<!-- tokens -->
<g id="node8" class="node">
<title>tokens</title>
<path fill="#e6e6e6" stroke="black" stroke-width="2" d="M486.96,-488.4C486.96,-488.4 402.96,-488.4 402.96,-488.4 396.96,-488.4 390.96,-482.4 390.96,-476.4 390.96,-476.4 390.96,-442.8 390.96,-442.8 390.96,-436.8 396.96,-430.8 402.96,-430.8 402.96,-430.8 486.96,-430.8 486.96,-430.8 492.96,-430.8 498.96,-436.8 498.96,-442.8 498.96,-442.8 498.96,-476.4 498.96,-476.4 498.96,-482.4 492.96,-488.4 486.96,-488.4"/>
<text xml:space="preserve" text-anchor="middle" x="444.96" y="-462.05" font-family="Arial" font-size="14.00" fill="#333333">Tokens</text>
<text xml:space="preserve" text-anchor="middle" x="444.96" y="-446.3" font-family="Arial" font-size="14.00" fill="#333333">Reconocidos</text>
</g>
<!-- afd_multi&#45;&gt;tokens -->
<g id="edge5" class="edge">
<title>afd_multi&#45;&gt;tokens</title>
<path fill="none" stroke="#333333" stroke-width="1.3" d="M70.96,-573.57C70.96,-525.68 70.96,-450 70.96,-450 70.96,-450 380.21,-450 380.21,-450"/>
<polygon fill="#333333" stroke="#333333" stroke-width="1.3" points="380.21,-452.8 388.21,-450 380.21,-447.2 380.21,-452.8"/>
</g>
<!-- afd_op&#45;&gt;tokens -->
<g id="edge7" class="edge">
<title>afd_op&#45;&gt;tokens</title>
<path fill="none" stroke="#333333" stroke-width="1.3" d="M265.96,-573.64C265.96,-531.3 265.96,-469 265.96,-469 265.96,-469 380.31,-469 380.31,-469"/>
<polygon fill="#333333" stroke="#333333" stroke-width="1.3" points="380.31,-471.8 388.31,-469 380.31,-466.2 380.31,-471.8"/>
</g>
<!-- afd_num&#45;&gt;tokens -->
<g id="edge9" class="edge">
<title>afd_num&#45;&gt;tokens</title>
<path fill="none" stroke="#333333" stroke-width="1.3" d="M444.96,-573.5C444.96,-573.5 444.96,-499.35 444.96,-499.35"/>
<polygon fill="#333333" stroke="#333333" stroke-width="1.3" points="447.76,-499.35 444.96,-491.35 442.16,-499.35 447.76,-499.35"/>
</g>
<!-- afd_uni&#45;&gt;tokens -->
<g id="edge11" class="edge">
<title>afd_uni&#45;&gt;tokens</title>
<path fill="none" stroke="#333333" stroke-width="1.3" d="M612.96,-573.64C612.96,-531.3 612.96,-469 612.96,-469 612.96,-469 509.47,-469 509.47,-469"/>
<polygon fill="#333333" stroke="#333333" stroke-width="1.3" points="509.47,-466.2 501.47,-469 509.47,-471.8 509.47,-466.2"/>
</g>
<!-- afd_pal&#45;&gt;tokens -->
<g id="edge13" class="edge">
<title>afd_pal&#45;&gt;tokens</title>
<path fill="none" stroke="#333333" stroke-width="1.3" d="M780.96,-573.57C780.96,-525.68 780.96,-450 780.96,-450 780.96,-450 509.66,-450 509.66,-450"/>
<polygon fill="#333333" stroke="#333333" stroke-width="1.3" points="509.66,-447.2 501.66,-450 509.66,-452.8 509.66,-447.2"/>
</g>
<!-- contexto -->
<g id="node9" class="node">
<title>contexto</title>
<path fill="#e6e6e6" stroke="black" stroke-width="2" d="M486.96,-344.8C486.96,-344.8 402.96,-344.8 402.96,-344.8 396.96,-344.8 390.96,-338.8 390.96,-332.8 390.96,-332.8 390.96,-299.2 390.96,-299.2 390.96,-293.2 396.96,-287.2 402.96,-287.2 402.96,-287.2 486.96,-287.2 486.96,-287.2 492.96,-287.2 498.96,-293.2 498.96,-299.2 498.96,-299.2 498.96,-332.8 498.96,-332.8 498.96,-338.8 492.96,-344.8 486.96,-344.8"/>
<text xml:space="preserve" text-anchor="middle" x="444.96" y="-318.45" font-family="Arial" font-size="14.00" fill="#333333">Análisis</text>
<text xml:space="preserve" text-anchor="middle" x="444.96" y="-302.7" font-family="Arial" font-size="14.00" fill="#333333">Contextual</text>
</g>
<!-- tokens&#45;&gt;contexto -->
<g id="edge14" class="edge">
<title>tokens&#45;&gt;contexto</title>
<path fill="none" stroke="#333333" stroke-width="1.5" d="M444.96,-429.85C444.96,-429.85 444.96,-355.99 444.96,-355.99"/>
<polygon fill="#333333" stroke="#333333" stroke-width="1.5" points="447.76,-355.99 444.96,-347.99 442.16,-355.99 447.76,-355.99"/>
</g>
<!-- semantico -->
<g id="node10" class="node">
<title>semantico</title>
<path fill="#e6e6e6" stroke="black" stroke-width="2" d="M486.96,-201.2C486.96,-201.2 402.96,-201.2 402.96,-201.2 396.96,-201.2 390.96,-195.2 390.96,-189.2 390.96,-189.2 390.96,-155.6 390.96,-155.6 390.96,-149.6 396.96,-143.6 402.96,-143.6 402.96,-143.6 486.96,-143.6 486.96,-143.6 492.96,-143.6 498.96,-149.6 498.96,-155.6 498.96,-155.6 498.96,-189.2 498.96,-189.2 498.96,-195.2 492.96,-201.2 486.96,-201.2"/>
<text xml:space="preserve" text-anchor="middle" x="444.96" y="-174.85" font-family="Arial" font-size="14.00" fill="#333333">Interpretación</text>
<text xml:space="preserve" text-anchor="middle" x="444.96" y="-159.1" font-family="Arial" font-size="14.00" fill="#333333">Semántica</text>
</g>
<!-- contexto&#45;&gt;semantico -->
<g id="edge1" class="edge">
<title>contexto&#45;&gt;semantico</title>
<path fill="none" stroke="black" stroke-width="1.5" d="M444.96,-286.25C444.96,-286.25 444.96,-212.39 444.96,-212.39"/>
<polygon fill="black" stroke="black" stroke-width="1.5" points="447.76,-212.39 444.96,-204.39 442.16,-212.39 447.76,-212.39"/>
</g>
<!-- json -->
<g id="node11" class="node">
<title>json</title>
<path fill="#98fb98" stroke="black" stroke-width="2" d="M486.96,-57.6C486.96,-57.6 402.96,-57.6 402.96,-57.6 396.96,-57.6 390.96,-51.6 390.96,-45.6 390.96,-45.6 390.96,-12 390.96,-12 390.96,-6 396.96,0 402.96,0 402.96,0 486.96,0 486.96,0 492.96,0 498.96,-6 498.96,-12 498.96,-12 498.96,-45.6 498.96,-45.6 498.96,-51.6 492.96,-57.6 486.96,-57.6"/>
<text xml:space="preserve" text-anchor="middle" x="444.96" y="-23.37" font-family="Arial" font-size="14.00" fill="#333333">Salida JSON</text>
</g>
<!-- semantico&#45;&gt;json -->
<g id="edge2" class="edge">
<title>semantico&#45;&gt;json</title>
<path fill="none" stroke="black" stroke-width="1.5" d="M444.96,-142.65C444.96,-142.65 444.96,-68.79 444.96,-68.79"/>
<polygon fill="black" stroke="black" stroke-width="1.5" points="447.76,-68.79 444.96,-60.79 442.16,-68.79 447.76,-68.79"/>
</g>
</g>
</svg>
